<?xml version="1.0" standalone="no"?>
<!DOCTYPE svg PUBLIC "-//W3C//DTD SVG 20010904//EN"
 "http://www.w3.org/TR/2001/REC-SVG-20010904/DTD/svg10.dtd">
<svg version="1.0" xmlns="http://www.w3.org/2000/svg"
 width="225.000000pt" height="225.000000pt" viewBox="0 0 225.000000 225.000000"
 preserveAspectRatio="xMidYMid meet">
<metadata>
Created by potrace 1.14, written by Peter Selinger 2001-2017
</metadata>
<g transform="translate(0.000000,225.000000) scale(0.100000,-0.100000)"
fill="#000000" stroke="none">
<path d="M887 1908 c-38 -19 -269 -78 -306 -78 -25 0 -92 -58 -111 -97 -8 -15
-30 -50 -50 -78 -36 -48 -120 -191 -120 -202 0 -3 -29 -44 -64 -92 -35 -47
-87 -121 -116 -165 -52 -77 -52 -80 -46 -135 10 -95 66 -401 92 -506 13 -55
24 -120 24 -145 l0 -45 99 0 99 -1 6 51 c3 28 12 65 20 81 20 41 36 252 36
473 0 225 4 251 36 251 13 0 25 -8 29 -19 3 -11 1 -85 -5 -166 -7 -98 -7 -200
0 -313 17 -286 24 -338 56 -407 7 -16 22 -55 33 -85 12 -34 24 -54 32 -52 60
15 233 23 504 25 276 1 330 -1 389 -16 38 -10 71 -15 74 -12 3 3 7 25 8 49 1
25 11 57 23 73 62 87 96 332 87 633 -3 107 -8 211 -12 231 -5 30 -2 40 17 58
20 19 24 19 40 6 14 -14 17 -52 22 -318 6 -323 17 -444 42 -479 9 -13 15 -44
15 -75 l0 -52 83 5 c135 9 127 4 120 79 -4 40 -2 74 5 88 19 38 32 100 32 157
1 79 16 177 51 316 28 116 29 124 14 159 -39 96 -376 632 -415 663 -44 34 -83
49 -230 86 -80 21 -154 42 -166 47 -15 8 -37 6 -79 -6 -78 -23 -221 -17 -286
12 -45 20 -46 20 -82 1z m263 -133 c0 -19 -4 -35 -9 -35 -27 0 -41 15 -41 41
0 24 4 29 25 29 22 0 25 -4 25 -35z"/>
</g>
</svg>
